<svg width="174" height="44" viewBox="0 0 174 44" fill="none" xmlns="http://www.w3.org/2000/svg">
<g clip-path="url(#clip0_379_776)">
<path d="M48.5371 34.8231V19.4353H54.5431C55.905 19.4353 57.0573 19.6447 58.0001 20.0634C58.9429 20.4821 59.6762 21.1102 60.2 21.9127C60.7237 22.7152 60.9682 23.6922 60.9682 24.8088C60.9682 25.9254 60.7237 26.8675 60.2 27.67C59.6762 28.4726 58.9429 29.1006 58.0001 29.5194C57.0573 29.9381 55.905 30.1823 54.5431 30.1823H49.7593L50.737 29.1355V34.8231H48.5371ZM50.737 29.3449L49.7593 28.2283H54.4733C55.87 28.2283 56.9525 27.9143 57.6858 27.3211C58.4191 26.7279 58.7683 25.8556 58.7683 24.7739C58.7683 23.6922 58.4191 22.8199 57.6858 22.2267C56.9525 21.6336 55.905 21.3195 54.4733 21.3195H49.7593L50.737 20.2029V29.31V29.3449Z" fill="black"/>
<path d="M64.2158 34.8231V19.4353H70.2218C71.5837 19.4353 72.736 19.6447 73.6788 20.0634C74.6216 20.4821 75.3549 21.1102 75.8787 21.9127C76.4025 22.7152 76.6469 23.6922 76.6469 24.8088C76.6469 25.9254 76.4025 26.8675 75.8787 27.67C75.3549 28.4726 74.6216 29.0658 73.6788 29.5194C72.736 29.9381 71.5837 30.1474 70.2218 30.1474H65.438L66.4157 29.1355V34.8231H64.2158ZM66.4157 29.3449L65.438 28.2632H70.152C71.5488 28.2632 72.6312 27.9492 73.3645 27.356C74.0978 26.7628 74.447 25.8905 74.447 24.8088C74.447 23.7271 74.0978 22.8548 73.3645 22.2616C72.6312 21.6685 71.5837 21.3544 70.152 21.3544H65.438L66.4157 20.2378V29.3449ZM74.5168 34.8231L70.6059 29.2402H72.9455L76.8913 34.8231H74.4819H74.5168Z" fill="black"/>
<path d="M87.1573 34.9976C85.9701 34.9976 84.8876 34.7882 83.875 34.4044C82.8623 34.0206 81.9894 33.4623 81.2561 32.7295C80.5228 32.0317 79.9641 31.1942 79.545 30.2172C79.126 29.2751 78.9165 28.2283 78.9165 27.1118C78.9165 25.9952 79.126 24.9484 79.545 24.0063C79.9641 23.0642 80.5228 22.2267 81.2561 21.494C81.9894 20.7961 82.8623 20.2378 83.84 19.8191C84.8527 19.4353 85.9352 19.226 87.1224 19.226C88.3096 19.226 89.3921 19.4353 90.3698 19.8191C91.3476 20.203 92.2205 20.7612 92.9538 21.4591C93.6871 22.157 94.2807 22.9944 94.6649 23.9714C95.0839 24.9135 95.2585 25.9603 95.2585 27.1118C95.2585 28.2632 95.049 29.31 94.6649 30.2521C94.2458 31.1942 93.6871 32.0317 92.9538 32.7644C92.2205 33.4623 91.3476 34.0206 90.3698 34.4044C89.3921 34.7882 88.3096 34.9976 87.1224 34.9976H87.1573ZM87.1573 33.0436C87.9954 33.0436 88.7985 32.904 89.5318 32.5899C90.2651 32.3108 90.8936 31.8921 91.4174 31.3338C91.9412 30.7755 92.3602 30.1823 92.6745 29.4496C92.9887 28.7168 93.1284 27.9492 93.1284 27.1118C93.1284 26.2743 92.9887 25.4718 92.6745 24.7739C92.3602 24.0412 91.9412 23.4131 91.4174 22.8897C90.8936 22.3663 90.2651 21.9476 89.5318 21.6336C88.7985 21.3544 88.0303 21.18 87.1573 21.18C86.2844 21.18 85.4812 21.3195 84.7829 21.6336C84.0496 21.9127 83.421 22.3314 82.8623 22.8897C82.3036 23.4131 81.8846 24.0412 81.6052 24.7739C81.291 25.5067 81.1513 26.2743 81.1513 27.1118C81.1513 27.9492 81.291 28.7517 81.6052 29.4496C81.9195 30.1823 82.3385 30.8104 82.8623 31.3338C83.421 31.8572 84.0496 32.2759 84.7829 32.5899C85.5161 32.8691 86.3193 33.0436 87.1573 33.0436Z" fill="black"/>
<path d="M96.0962 34.8231L102.486 26.0999V27.8096L96.4454 19.4702H98.9595L103.743 26.0301H102.766L107.55 19.4702H109.959L103.953 27.705V26.1348L110.343 34.8929H107.829L102.731 27.8794H103.708L98.6802 34.8929H96.166L96.0962 34.8231Z" fill="black"/>
<path d="M112.438 34.8231V19.4353H114.638V34.8231H112.438Z" fill="black"/>
<path d="M119.248 34.8231V19.4353H121.063L127.977 31.0547H127L133.809 19.4353H135.624V34.8231H133.529V22.7501H134.018L127.942 32.9389H126.93L120.819 22.7501H121.378V34.8231H119.248Z" fill="black"/>
<path d="M140.269 34.8231V19.4353H142.468V34.8231H140.269Z" fill="black"/>
<path d="M150.151 34.8231V21.3544H144.878V19.4353H157.623V21.3544H152.351V34.8231H150.186H150.151Z" fill="black"/>
<path d="M165.69 34.8231V28.9262L166.179 30.287L159.544 19.4353H161.884L167.436 28.6121H166.144L171.731 19.4353H173.896L167.296 30.287L167.785 28.9262V34.8231H165.62H165.69Z" fill="black"/>
<path d="M24.5481 21.9476C26.708 21.9476 28.459 20.1979 28.459 18.0396C28.459 15.8813 26.708 14.1316 24.5481 14.1316C22.3882 14.1316 20.6372 15.8813 20.6372 18.0396C20.6372 20.1979 22.3882 21.9476 24.5481 21.9476Z" fill="black"/>
<path d="M14.8054 27.391C16.9654 27.391 18.7163 25.6413 18.7163 23.483C18.7163 21.3246 16.9654 19.575 14.8054 19.575C12.6455 19.575 10.8945 21.3246 10.8945 23.483C10.8945 25.6413 12.6455 27.391 14.8054 27.391Z" fill="black"/>
<path d="M14.8054 17.586C16.9654 17.586 18.7163 15.8364 18.7163 13.678C18.7163 11.5197 16.9654 9.77002 14.8054 9.77002C12.6455 9.77002 10.8945 11.5197 10.8945 13.678C10.8945 15.8364 12.6455 17.586 14.8054 17.586Z" fill="black"/>
<path d="M24.5481 12.1776C26.708 12.1776 28.459 10.4279 28.459 8.26958C28.459 6.11125 26.708 4.36157 24.5481 4.36157C22.3882 4.36157 20.6372 6.11125 20.6372 8.26958C20.6372 10.4279 22.3882 12.1776 24.5481 12.1776Z" fill="black"/>
<path d="M14.8054 7.81602C16.9654 7.81602 18.7163 6.06634 18.7163 3.90801C18.7163 1.74968 16.9654 0 14.8054 0C12.6455 0 10.8945 1.74968 10.8945 3.90801C10.8945 6.06634 12.6455 7.81602 14.8054 7.81602Z" fill="black"/>
<path d="M34.2903 17.586C36.4502 17.586 38.2012 15.8364 38.2012 13.678C38.2012 11.5197 36.4502 9.77002 34.2903 9.77002C32.1304 9.77002 30.3794 11.5197 30.3794 13.678C30.3794 15.8364 32.1304 17.586 34.2903 17.586Z" fill="black"/>
<path d="M3.9109 31.7525C6.07083 31.7525 7.82179 30.0029 7.82179 27.8445C7.82179 25.6862 6.07083 23.9365 3.9109 23.9365C1.75097 23.9365 0 25.6862 0 27.8445C0 30.0029 1.75097 31.7525 3.9109 31.7525Z" fill="black"/>
<path d="M34.2903 27.391C36.4502 27.391 38.2012 25.6413 38.2012 23.483C38.2012 21.3246 36.4502 19.575 34.2903 19.575C32.1304 19.575 30.3794 21.3246 30.3794 23.483C30.3794 25.6413 32.1304 27.391 34.2903 27.391Z" fill="black"/>
<path d="M3.9109 21.9476C6.07083 21.9476 7.82179 20.1979 7.82179 18.0396C7.82179 15.8813 6.07083 14.1316 3.9109 14.1316C1.75097 14.1316 0 15.8813 0 18.0396C0 20.1979 1.75097 21.9476 3.9109 21.9476Z" fill="black"/>
<path d="M14.8057 29.3799C16.9706 29.3799 18.7166 31.1245 18.7166 33.2879V44H10.9297V33.2879C10.9297 31.1245 12.6756 29.3799 14.8406 29.3799H14.8057Z" fill="black"/>
<path d="M24.5479 23.9714C26.7128 23.9714 28.4588 25.7161 28.4588 27.8794V44.0349H20.6719V27.8794C20.6719 25.7161 22.4178 23.9714 24.5828 23.9714H24.5479Z" fill="black"/>
</g>
<defs>
<clipPath id="clip0_379_776">
<rect width="174" height="44" fill="white"/>
</clipPath>
</defs>
</svg>
