<svg width="24" height="24" viewBox="0 0 24 24" fill="none" xmlns="http://www.w3.org/2000/svg">
<path d="M8.4 0C7.76348 0 7.15303 0.252856 6.70294 0.702944C6.25286 1.15303 6 1.76348 6 2.4H16.8C17.4365 2.4 18.047 2.65286 18.4971 3.10294C18.9471 3.55303 19.2 4.16348 19.2 4.8V19.2C19.8365 19.2 20.447 18.9471 20.8971 18.4971C21.3471 18.047 21.6 17.4365 21.6 16.8V2.4C21.6 1.76348 21.3471 1.15303 20.8971 0.702944C20.447 0.252856 19.8365 0 19.2 0L8.4 0Z" fill="#A2A2A2"/>
<path d="M15.5999 24C16.2364 24 16.8469 23.7471 17.297 23.297C17.747 22.8469 17.9999 22.2365 17.9999 21.6V5.99998C17.9999 5.36346 17.747 4.75301 17.297 4.30292C16.8469 3.85283 16.2364 3.59998 15.5999 3.59998H4.7999C4.16338 3.59998 3.55293 3.85283 3.10285 4.30292C2.65276 4.75301 2.3999 5.36346 2.3999 5.99998V21.6C2.3999 22.2365 2.65276 22.8469 3.10285 23.297C3.55293 23.7471 4.16338 24 4.7999 24H15.5999ZM10.7999 5.99998H15.5999V12H10.7999V5.99998ZM4.7999 5.99998H9.5999V7.19998H4.7999V5.99998ZM4.7999 8.39998H9.5999V9.59998H4.7999V8.39998ZM4.7999 10.8H9.5999V12H4.7999V10.8ZM4.7999 13.2H15.5999V14.4H4.7999V13.2ZM4.7999 15.6H15.5999V16.8H4.7999V15.6ZM4.7999 18H15.5999V19.2H4.7999V18Z" fill="#A2A2A2"/>
</svg>
