<?xml version="1.0" encoding="UTF-8"?>
<svg version="1.1" xmlns="http://www.w3.org/2000/svg" width="110" height="126">
<path d="M0 0 C2.70552388 2.19823815 4.44778333 3.89556667 6 7 C6.09016377 8.60354452 6.11756075 10.21082222 6.11352539 11.81689453 C6.11344986 12.81778107 6.11337433 13.8186676 6.11329651 14.84988403 C6.10813522 15.93325043 6.10297394 17.01661682 6.09765625 18.1328125 C6.0962413 19.23978485 6.09482635 20.3467572 6.09336853 21.48727417 C6.08775772 25.03320993 6.07520337 28.57908323 6.0625 32.125 C6.05748639 34.52473867 6.05292325 36.92447833 6.04882812 39.32421875 C6.0386344 45.21618943 6.01906103 51.10802455 6 57 C-1.59 57 -9.18 57 -17 57 C-17.09192144 49.98843681 -17.17153628 42.97897122 -17.21972656 35.96728516 C-17.23981893 33.58309843 -17.26709781 31.19896085 -17.30175781 28.81494141 C-17.35037859 25.38431662 -17.37299312 21.95434445 -17.390625 18.5234375 C-17.41127014 17.46071625 -17.43191528 16.397995 -17.45318604 15.30307007 C-17.45502581 9.21002594 -17.10178942 5.62375727 -13 1 C-8.89279273 -1.87097855 -4.65732778 -1.31168946 0 0 Z " fill="#FFFFFF" transform="translate(76,69)"/>
<path d="M0 0 C3.06881816 1.71904752 5.40357084 3.80714167 7 7 C7.08667255 9.62627133 7.11560135 12.22562483 7.09765625 14.8515625 C7.0962413 15.62559418 7.09482635 16.39962585 7.09336853 17.19711304 C7.08776403 19.67311442 7.07521083 22.14902588 7.0625 24.625 C7.05748558 26.30208203 7.05292257 27.97916547 7.04882812 29.65625 C7.03864336 33.77089597 7.01906894 37.88534715 7 42 C-0.59 42 -8.18 42 -16 42 C-16.06900495 37.24888122 -16.12869507 32.49951229 -16.16479492 27.74829102 C-16.17984876 26.13332211 -16.20029648 24.51839387 -16.22631836 22.90356445 C-16.26285286 20.57753445 -16.27976015 18.25204659 -16.29296875 15.92578125 C-16.30845261 15.20787918 -16.32393646 14.48997711 -16.33988953 13.75032043 C-16.34171393 8.27269722 -14.97579419 5.20377044 -11.375 1.1875 C-7.62824429 -0.68587786 -4.09342525 -0.77902557 0 0 Z " fill="#CCCCCC" transform="translate(47,84)"/>
<path d="M0 0 C3.72450065 0.0266798 5.9576732 0.31806141 8.875 2.6875 C11.73358831 5.83927686 12.22902834 7.49020043 12.625 11.6875 C12.25300629 16.0770258 11.11902364 18.02276343 8.3125 21.375 C4.9030957 23.96144464 1.4738551 23.74003115 -2.6875 23.375 C-6.40715196 21.68424911 -8.51686318 19.80777677 -10.6875 16.375 C-11.3510265 12.9744267 -11.29971119 9.78352716 -10.6875 6.375 C-8.25 3.3125 -8.25 3.3125 -5.6875 1.375 C-4.05531064 -0.25718936 -2.24806873 0.08736889 0 0 Z " fill="#FFFFFF" transform="translate(97.6875,55.625)"/>
<path d="M0 0 C3.62531608 1.8741654 5.69121639 4.07364917 7 8 C7.36795288 12.96736392 7.2446074 16.10647112 4 20 C-0.05815166 22.61525329 -3.19144587 23.70124748 -8 23 C-11.6578218 20.96006092 -13.66946174 19.49580738 -16 16 C-16.71207438 11.11483856 -16.72852643 7.1899265 -14.125 2.9375 C-9.93719923 -0.88078894 -5.4558316 -0.76030731 0 0 Z " fill="#FFFFFF" transform="translate(103,28)"/>
<path d="M0 0 C3.08193978 1.6281946 5.26420667 3.03009062 7.375 5.8125 C8.59875016 10.09562557 8.59895652 13.68229565 6.75 17.75 C4.39942086 20.77217318 2.43149713 22.72068349 -1.40234375 23.46875 C-8.28614193 23.55360421 -8.28614193 23.55360421 -12.0625 20.625 C-15.38925255 16.11778686 -15.69641694 12.51409576 -15 7 C-11.26462549 0.72990708 -7.14896407 -0.73954801 0 0 Z " fill="#FFFFFF" transform="translate(15,68)"/>
<path d="M0 0 C2.89683868 2.2015974 4.39297231 3.78594462 6 7 C6.39771327 11.77255923 6.47453429 14.08482672 4.25 18.375 C1.04742257 22.11134034 -0.50430385 22.83381154 -5.375 23.375 C-9.69296607 22.92831385 -11.69326548 21.7684289 -15 19 C-17.37917298 15.97196166 -17.35663753 12.75548948 -17.2578125 8.96484375 C-16.87949755 6.08162525 -15.79180855 4.25635151 -14 2 C-9.55599734 -0.96266844 -5.21098923 -0.76945894 0 0 Z " fill="#CCCCCC" transform="translate(48,28)"/>
<path d="M0 0 C3.08193978 1.6281946 5.26420667 3.03009062 7.375 5.8125 C8.59875016 10.09562557 8.59895652 13.68229565 6.75 17.75 C4.37915366 20.798231 2.89326128 22.67120844 -1.046875 23.35546875 C-5.30922172 23.62007752 -8.13064703 23.37582441 -11.5 20.625 C-15.13429102 16.80899443 -15.39670447 14.44135464 -15.35546875 9.328125 C-14.75147582 5.37230319 -12.89542195 3.69341577 -10 1 C-6.38069302 -0.20643566 -3.80768995 -0.32268559 0 0 Z " fill="#CCCCCC" transform="translate(74,40)"/>
<path d="M0 0 C3.08193978 1.6281946 5.26420667 3.03009062 7.375 5.8125 C8.59875016 10.09562557 8.59895652 13.68229565 6.75 17.75 C4.37915366 20.798231 2.89326128 22.67120844 -1.046875 23.35546875 C-5.30922172 23.62007752 -8.13064703 23.37582441 -11.5 20.625 C-15.13429102 16.80899443 -15.39670447 14.44135464 -15.35546875 9.328125 C-14.75147582 5.37230319 -12.89542195 3.69341577 -10 1 C-6.38069302 -0.20643566 -3.80768995 -0.32268559 0 0 Z " fill="#FFFFFF" transform="translate(15,40)"/>
<path d="M0 0 C3.08193978 1.6281946 5.26420667 3.03009062 7.375 5.8125 C8.59875016 10.09562557 8.59895652 13.68229565 6.75 17.75 C4.37915366 20.798231 2.89326128 22.67120844 -1.046875 23.35546875 C-5.30922172 23.62007752 -8.13064703 23.37582441 -11.5 20.625 C-15.13429102 16.80899443 -15.39670447 14.44135464 -15.35546875 9.328125 C-14.75147582 5.37230319 -12.89542195 3.69341577 -10 1 C-6.38069302 -0.20643566 -3.80768995 -0.32268559 0 0 Z " fill="#CCCCCC" transform="translate(74,12)"/>
<path d="M0 0 C2.82424288 2.19022918 4.41508603 3.83017207 6 7 C6.39771327 11.77255923 6.47453429 14.08482672 4.25 18.375 C1.04742257 22.11134034 -0.50430385 22.83381154 -5.375 23.375 C-9.69296607 22.92831385 -11.69326548 21.7684289 -15 19 C-17.33031854 16.03414004 -17.47119441 12.76377357 -17.39453125 9.03515625 C-16.68647817 5.38272403 -14.62465368 3.56216192 -12 1 C-8.28546768 -0.85726616 -4.04420575 -0.58501089 0 0 Z " fill="#CCCCCC" transform="translate(48,0)"/>
<path d="M0 0 C3.07469523 1.70251719 5.40613254 3.81226508 7 7 C7.34717992 12.29449372 7.52421718 15.74663444 4 20 C1.09799637 22.33772514 -0.72300894 22.96474659 -4.4375 23.4375 C-9.25299984 22.84612283 -12.36132406 21.08558757 -15.375 17.25 C-16.34165091 13.77005671 -16.68551123 10.536152 -16 7 C-12.14342218 0.33342496 -7.31971451 -1.12988882 0 0 Z " fill="#CCCCCC" transform="translate(47,56)"/>
</svg>
