<svg width="146" height="146" viewBox="0 0 146 146" fill="none" xmlns="http://www.w3.org/2000/svg">
<path d="M73 12.1671C82.4436 12.1668 91.5199 15.8266 98.3217 22.3778C105.124 28.9289 109.122 37.8614 109.476 47.2984L109.5 48.6671H115.583C118.653 48.6661 121.609 49.8254 123.86 51.9126C126.111 53.9997 127.489 56.8604 127.72 59.9213L127.75 60.8338V121.667C127.751 124.737 126.592 127.693 124.505 129.944C122.417 132.195 119.557 133.573 116.496 133.803L115.583 133.834H30.4167C27.3472 133.835 24.3907 132.675 22.14 130.588C19.8893 128.501 18.5106 125.64 18.2804 122.58L18.25 121.667V60.8338C18.249 57.7643 19.4083 54.8078 21.4954 52.5571C23.5826 50.3064 26.4433 48.9277 29.5042 48.6975L30.4167 48.6671H36.5C36.5 38.9867 40.3455 29.7028 47.1906 22.8577C54.0357 16.0126 63.3196 12.1671 73 12.1671ZM115.583 60.8338H30.4167V121.667H115.583V60.8338ZM73 73.0005C75.5951 73.0013 78.1219 73.8318 80.2114 75.3708C82.3009 76.9098 83.8436 79.0766 84.6141 81.5546C85.3847 84.0327 85.3427 86.6922 84.4943 89.1447C83.6459 91.5972 82.0356 93.7141 79.8985 95.1864L79.0833 95.7035V103.417C79.0816 104.968 78.4879 106.459 77.4235 107.586C76.3591 108.714 74.9044 109.392 73.3565 109.483C71.8087 109.574 70.2845 109.071 69.0955 108.075C67.9065 107.08 67.1424 105.669 66.9593 104.129L66.9167 103.417V95.7035C64.5973 94.3642 62.7847 92.2972 61.7599 89.8228C60.735 87.3484 60.5553 84.605 61.2485 82.0181C61.9416 79.4312 63.469 77.1452 65.5937 75.5148C67.7185 73.8844 70.3218 73.0006 73 73.0005ZM73 24.3338C66.5464 24.3338 60.3571 26.8975 55.7937 31.4608C51.2304 36.0242 48.6667 42.2135 48.6667 48.6671H97.3333C97.3333 42.2135 94.7697 36.0242 90.2063 31.4608C85.6429 26.8975 79.4536 24.3338 73 24.3338Z" fill="#001A5C"/>
</svg>
